PathFileType	4	(X/Y/Z)	D:\TRACE\v60_Jaco2_6-2-23\BothDRS_Motion3_10-platform.trc
DataRate	CameraRate	NumFrames	NumMarkers	Units	OrigDataRate	OrigDataStartFrame	OrigNumFrames
100.00	100.00	      30	5	mm	100.00	1	      7000
Frame#	Time	Left_Front			Right_Front			Left_Aft			Right_Aft			Post			
		X1	Y1	Z1	X2	Y2	Z2	X3	Y3	Z3	X4	Y4	Z4	X5	Y5	Z5	

1	0.000	-814.73926	128.45941	-611.80109	755.67847	125.78720	-588.91620	-745.36005	-73.95087	506.92911	668.63354	-92.29612	608.16614	-22.25215	1462.16626	-684.56934	
2	0.010	-814.72565	128.46939	-611.82574	755.68420	125.79272	-588.89685	-745.36133	-73.92120	506.93945	668.61945	-92.30118	608.17407	-22.23866	1462.15857	-684.60706	
3	0.020	-814.77234	128.50652	-611.78979	755.73199	125.78719	-588.86322	-745.36053	-73.95547	506.90112	668.61847	-92.28514	608.20758	-22.19650	1462.14978	-684.60150	
4	0.030	-814.70972	128.43637	-611.83472	755.68097	125.76761	-588.90302	-745.33435	-73.92632	506.94046	668.60803	-92.30019	608.17603	-22.21580	1462.13599	-684.54364	
5	0.040	-814.69446	128.44231	-611.82300	755.71600	125.79066	-588.86499	-745.36523	-73.93158	506.91077	668.57672	-92.31689	608.16998	-22.28254	1462.11951	-684.60785	
6	0.050	-814.70978	128.43300	-611.82227	755.70673	125.75945	-588.87177	-745.36676	-73.94023	506.92123	668.58765	-92.31691	608.19458	-22.25438	1462.14099	-684.58881	
7	0.060	-814.72333	128.44144	-611.79724	755.72754	125.78700	-588.90472	-745.35913	-73.93417	506.90390	668.62671	-92.30414	608.19257	-22.26658	1462.14819	-684.57166	
8	0.070	-814.76050	128.45978	-611.81458	755.73108	125.80127	-588.89856	-745.33301	-73.93237	506.91711	668.67908	-92.30924	608.19080	-22.19891	1462.16846	-684.57623	
9	0.080	-814.73828	128.45590	-611.81250	755.71973	125.79826	-588.86890	-745.35999	-73.96411	506.93329	668.58813	-92.30201	608.19342	-22.25544	1462.12097	-684.60492	
10	0.090	-814.74060	128.48959	-611.77350	755.71057	125.76374	-588.88074	-745.36212	-73.96169	506.91797	668.56531	-92.30859	608.18134	-22.27000	1462.10229	-684.61633	
11	0.100	-814.75391	128.47787	-611.79291	755.71906	125.77956	-588.86456	-745.37335	-73.92422	506.94699	668.55695	-92.32798	608.21570	-22.30462	1462.09705	-684.59485	
12	0.110	-814.72083	128.43631	-611.80908	755.68976	125.75667	-588.88428	-745.35010	-73.94719	506.92285	668.59949	-92.31773	608.17712	-22.28531	1462.09021	-684.60822	
13	0.120	-814.73846	128.46170	-611.82471	755.70306	125.78764	-588.88684	-745.35699	-73.92325	506.93390	668.57532	-92.30857	608.19318	-22.23167	1462.15686	-684.61188	
14	0.130	-814.72723	128.44254	-611.80524	755.73523	125.78457	-588.87457	-745.33557	-73.92553	506.91299	668.64453	-92.30862	608.17065	-22.22056	1462.16443	-684.58746	
15	0.140	-814.73846	128.45061	-611.81152	755.72052	125.77854	-588.86877	-745.34509	-73.96002	506.92670	668.56171	-92.30203	608.17505	-22.25809	1462.13721	-684.58368	
16	0.150	-814.74933	128.45064	-611.79968	755.72284	125.75830	-588.87848	-745.33838	-73.94536	506.92532	668.58917	-92.31622	608.16003	-22.24879	1462.15027	-684.57678	
17	0.160	-814.70880	128.44643	-611.82361	755.70508	125.76187	-588.87433	-745.29797	-73.93951	506.91837	668.57959	-92.32467	608.18140	-22.24267	1462.14392	-684.58099	
18	0.170	-814.71436	128.43489	-611.82733	755.74561	125.76584	-588.88599	-745.36035	-73.93214	506.92783	668.63287	-92.27663	608.19989	-22.21976	1462.17090	-684.59210	
19	0.180	-814.74292	128.46992	-611.82336	755.73419	125.76584	-588.91663	-745.31610	-73.93259	506.92517	668.62842	-92.29793	608.18884	-22.21083	1462.14258	-684.59961	
20	0.190	-814.74615	128.47220	-611.81537	755.73450	125.80733	-588.89227	-745.33215	-73.90405	506.93829	668.58984	-92.31061	608.16663	-22.21688	1462.14990	-684.62537	
21	0.200	-814.71448	128.43068	-611.80084	755.71527	125.78370	-588.91510	-745.31622	-73.91622	506.92819	668.60699	-92.30842	608.17877	-22.23197	1462.15662	-684.60791	
22	0.210	-814.71869	128.46858	-611.82513	755.70850	125.75877	-588.91644	-745.34332	-73.92870	506.92761	668.58234	-92.31807	608.17084	-22.27396	1462.12952	-684.59027	
23	0.220	-814.70813	128.41901	-611.82220	755.72656	125.74431	-588.89288	-745.36481	-73.94730	506.92984	668.56573	-92.32320	608.17688	-22.22293	1462.14221	-684.59875	
24	0.230	-814.73822	128.46101	-611.81915	755.70709	125.76085	-588.92151	-745.32379	-73.93974	506.93909	668.58405	-92.31440	608.17682	-22.27897	1462.13953	-684.57355	
25	0.240	-814.70087	128.43048	-611.81305	755.74103	125.76186	-588.89905	-745.31824	-73.89766	506.94580	668.61505	-92.31340	608.16113	-22.25101	1462.11499	-684.59857	
26	0.250	-814.73291	128.45753	-611.80127	755.71338	125.76627	-588.91925	-745.35577	-73.91620	506.93866	668.58063	-92.31255	608.17053	-22.26039	1462.13416	-684.58960	
27	0.260	-814.71521	128.44664	-611.83508	755.72522	125.75647	-588.90717	-745.36041	-73.93507	506.92609	668.63293	-92.30838	608.18188	-22.26094	1462.12915	-684.59912	
28	0.270	-814.68829	128.40645	-611.80511	755.72021	125.75822	-588.90814	-745.34576	-73.92820	506.92987	668.63159	-92.28746	608.17291	-22.24124	1462.10718	-684.60773	
29	0.280	-814.71826	128.45114	-611.81104	755.69714	125.76328	-588.90723	-745.34406	-73.92308	506.94223	668.61163	-92.31191	608.14819	-22.25095	1462.12500	-684.62213	
30	0.290	-814.72729	128.44411	-611.80872	755.74030	125.74550	-588.87048	-745.34552	-73.90122	506.94260	668.57813	-92.33299	608.21027	-22.23011	1462.15247	-684.58698	
